<?xml version="1.0" standalone="no"?>
<!DOCTYPE svg PUBLIC "-//W3C//DTD SVG 20010904//EN" "http://www.w3.org/TR/2001/REC-SVG-20010904/DTD/svg10.dtd">
<svg version="1.0" xmlns="http://www.w3.org/2000/svg"
    width="40px" height="40px" viewBox="0 0 512 512"
    preserveAspectRatio="xMidYMid meet">

    <g transform="translate(0.000000,512.000000) scale(0.100000,-0.100000)"
        fill="#000000" stroke="none">
        <path
            d="M29 5091 l-29 -29 0 -2502 0 -2502 29 -29 29 -29 2502 0 2502 0 29
29 29 29 0 2502 0 2502 -29 29 -29 29 -2502 0 -2502 0 -29 -29z m4921 -2531
l0 -2390 -2390 0 -2390 0 0 2390 0 2390 2390 0 2390 0 0 -2390z" />
        <path d="M340 4695 l0 -85 85 0 85 0 0 85 0 85 -85 0 -85 0 0 -85z" />
        <path
            d="M3635 4771 c-11 -5 -257 -247 -547 -538 -475 -476 -528 -532 -528
-560 0 -19 10 -43 23 -59 20 -23 34 -28 85 -32 l62 -4 0 -339 0 -339 -57 0
c-105 -1 -113 -18 -113 -254 0 -197 6 -226 47 -245 17 -8 324 -11 1069 -11
l1046 0 29 29 29 29 0 197 0 197 -29 29 c-26 25 -37 29 -85 29 l-56 0 0 340 0
340 40 0 c87 0 139 46 125 110 -4 17 -185 205 -533 553 -546 546 -553 552
-607 528z m442 -603 c222 -222 403 -406 403 -410 0 -5 -364 -8 -810 -8 -445 0
-810 3 -810 7 0 9 802 813 810 813 3 0 186 -181 407 -402z m-917 -928 l0 -340
-130 0 -130 0 0 340 0 340 130 0 130 0 0 -340z m420 0 l0 -340 -125 0 -125 0
0 340 0 340 125 0 125 0 0 -340z m430 0 l0 -341 -127 3 -128 3 -3 338 -2 337
130 0 130 0 0 -340z m430 0 l0 -340 -130 0 -130 0 0 340 0 340 130 0 130 0 0
-340z m170 -595 l0 -85 -940 0 -940 0 0 85 0 85 940 0 940 0 0 -85z" />
        <path
            d="M3565 4326 c-59 -27 -117 -88 -136 -142 -17 -51 -16 -140 3 -185 85
-200 366 -211 464 -17 29 58 34 154 11 210 -55 131 -215 194 -342 134z m160
-171 c17 -16 25 -35 25 -58 0 -111 -160 -113 -163 -3 -2 75 86 114 138 61z" />
        <path d="M600 4435 l0 -85 85 0 85 0 0 85 0 85 -85 0 -85 0 0 -85z" />
        <path
            d="M857 4263 c-4 -3 -7 -42 -7 -85 l0 -78 85 0 85 0 0 85 0 85 -78 0
c-43 0 -82 -3 -85 -7z" />
        <path d="M1110 3925 l0 -85 85 0 85 0 0 85 0 85 -85 0 -85 0 0 -85z" />
        <path d="M1370 3665 l0 -86 83 3 82 3 3 83 3 82 -86 0 -85 0 0 -85z" />
        <path d="M1710 3665 l0 -86 83 3 82 3 3 83 3 82 -86 0 -85 0 0 -85z" />
        <path d="M2050 3665 l0 -85 85 0 85 0 0 85 0 85 -85 0 -85 0 0 -85z" />
        <path d="M2050 3325 l0 -85 85 0 85 0 0 85 0 85 -85 0 -85 0 0 -85z" />
        <path d="M2050 2985 l0 -85 85 0 85 0 0 85 0 85 -85 0 -85 0 0 -85z" />
        <path
            d="M882 2198 c-293 -293 -535 -543 -538 -556 -8 -28 13 -80 37 -92 10
-6 43 -10 73 -10 l56 0 0 -345 0 -345 -54 0 c-111 0 -116 -11 -116 -260 l0
-192 29 -29 29 -29 1052 0 1052 0 29 29 29 29 0 202 c0 200 0 201 -25 225 -20
21 -34 25 -85 25 l-60 0 0 345 0 345 60 0 c51 0 65 4 85 25 17 16 25 35 25 57
0 30 -46 78 -538 570 -503 504 -539 538 -572 538 -32 0 -69 -34 -568 -532z
m978 -83 l405 -405 -815 0 -815 0 405 405 c223 223 407 405 410 405 3 0 187
-182 410 -405z m-920 -920 l0 -346 -127 3 -128 3 -3 330 c-1 181 0 336 3 342
3 10 38 13 130 13 l125 0 0 -345z m425 0 l0 -340 -127 -3 -128 -3 0 346 0 346
128 -3 127 -3 0 -340z m425 0 l0 -345 -125 0 -125 0 0 345 0 345 125 0 125 0
0 -345z m430 0 l0 -346 -127 3 -128 3 -3 330 c-1 181 0 336 3 342 3 10 38 13
130 13 l125 0 0 -345z m170 -600 l0 -85 -940 0 -940 0 0 85 0 85 940 0 940 0
0 -85z" />
        <path
            d="M1354 2286 c-50 -22 -115 -87 -137 -135 -11 -26 -19 -66 -19 -100 0
-99 46 -178 130 -224 66 -36 125 -43 193 -23 225 65 248 380 34 477 -48 22
-155 25 -201 5z m153 -178 c30 -34 34 -55 19 -92 -18 -44 -64 -63 -106 -46
-37 15 -50 37 -50 81 0 71 90 108 137 57z" />
        <path d="M2050 2645 l0 -85 85 0 85 0 0 85 0 85 -85 0 -85 0 0 -85z" />
        <path d="M2220 2385 l0 -85 85 0 85 0 0 85 0 85 -85 0 -85 0 0 -85z" />
        <path
            d="M2477 2214 c-4 -4 -7 -43 -7 -86 l0 -78 90 0 91 0 -3 83 -3 82 -80 3
c-45 1 -84 0 -88 -4z" />
        <path d="M2730 1875 l0 -85 85 0 85 0 0 85 0 85 -85 0 -85 0 0 -85z" />
        <path d="M2990 1625 l0 -85 85 0 86 0 -3 83 -3 82 -82 3 -83 3 0 -86z" />
        <path d="M3330 1625 l0 -85 85 0 85 0 0 85 0 85 -85 0 -85 0 0 -85z" />
        <path d="M3670 1625 l0 -85 85 0 85 0 0 85 0 85 -85 0 -85 0 0 -85z" />
        <path d="M4010 1625 l0 -85 85 0 85 0 0 85 0 85 -85 0 -85 0 0 -85z" />
        <path d="M4270 1365 l0 -85 85 0 85 0 0 85 0 85 -85 0 -85 0 0 -85z" />
        <path d="M4270 1025 l0 -85 85 0 85 0 0 85 0 85 -85 0 -85 0 0 -85z" />
        <path d="M4270 685 l0 -85 85 0 85 0 0 85 0 85 -85 0 -85 0 0 -85z" />
        <path d="M4520 425 l0 -85 85 0 85 0 0 85 0 85 -85 0 -85 0 0 -85z" />
    </g>
</svg>