<?xml version="1.0" standalone="no"?>
<!DOCTYPE svg PUBLIC "-//W3C//DTD SVG 20010904//EN" "http://www.w3.org/TR/2001/REC-SVG-20010904/DTD/svg10.dtd">
<svg version="1.0" xmlns="http://www.w3.org/2000/svg"
    width="40px" height="40px" viewBox="0 0 512 512"
    preserveAspectRatio="xMidYMid meet">

    <g transform="translate(0.000000,512.000000) scale(0.100000,-0.100000)"
        fill="#000000" stroke="none">
        <path
            d="M3612 3547 c-72 -73 -132 -139 -132 -148 0 -19 20 -39 39 -39 9 0 57
42 108 92 l93 93 0 -1025 0 -1025 -93 93 c-51 50 -99 92 -108 92 -19 0 -39
-20 -39 -40 0 -19 260 -280 280 -280 20 0 280 261 280 280 0 20 -20 40 -39 40
-9 0 -57 -42 -108 -92 l-93 -93 0 1025 0 1025 93 -93 c51 -50 99 -92 108 -92
19 0 39 20 39 40 0 20 -260 280 -280 280 -9 0 -75 -60 -148 -133z" />
        <path
            d="M4412 3468 c-17 -17 -17 -1959 0 -1976 17 -17 439 -17 456 0 17 17
17 1959 0 1976 -17 17 -439 17 -456 0z m388 -988 l0 -920 -160 0 -160 0 0 40
0 39 111 3 c94 3 114 6 123 21 8 12 8 22 0 35 -9 14 -29 17 -123 20 l-111 3 0
39 0 39 71 3 c55 2 74 7 83 21 8 12 8 22 0 35 -9 13 -28 18 -83 20 l-71 3 0
39 0 39 111 3 c94 3 114 6 123 21 8 12 8 22 0 35 -9 14 -29 17 -123 20 l-111
3 0 39 0 39 71 3 c55 2 74 7 83 21 8 12 8 22 0 35 -9 13 -28 18 -83 20 l-71 3
0 39 0 39 111 3 c94 3 114 6 123 21 8 12 8 22 0 35 -9 14 -29 17 -123 20
l-111 3 0 39 0 39 71 3 c55 2 74 7 83 21 8 12 8 22 0 35 -9 13 -28 18 -83 20
l-71 3 0 39 0 39 111 3 c94 3 114 6 123 21 8 12 8 22 0 35 -9 14 -29 17 -123
20 l-111 3 0 39 0 39 71 3 c55 2 74 7 83 21 8 12 8 22 0 35 -9 13 -28 18 -83
20 l-71 3 0 39 0 39 111 3 c94 3 114 6 123 21 8 12 8 22 0 35 -9 14 -29 17
-123 20 l-111 3 0 39 0 39 71 3 c55 2 74 7 83 21 8 12 8 22 0 35 -9 13 -28 18
-83 20 l-71 3 0 39 0 39 111 3 c94 3 114 6 123 21 8 12 8 22 0 35 -9 14 -29
17 -123 20 l-111 3 0 39 0 40 160 0 160 0 0 -920z" />
        <path
            d="M1715 3429 c-73 -17 -199 -61 -260 -92 -91 -45 -136 -79 -222 -168
-129 -134 -180 -160 -254 -133 -119 43 -419 -2 -558 -83 -66 -38 -159 -111
-171 -134 -6 -10 -9 -60 -8 -111 l3 -91 730 -494 c402 -272 743 -501 758 -509
26 -14 31 -14 70 10 23 14 364 243 757 509 l715 483 3 221 c2 169 -1 223 -10
230 -7 6 -98 30 -203 54 -157 36 -209 43 -296 44 -97 1 -110 3 -146 27 -137
91 -226 118 -413 128 -162 9 -167 10 -337 79 -57 22 -106 41 -110 40 -5 -1
-26 -5 -48 -10z m168 -118 c129 -52 223 -71 360 -71 117 0 185 -23 362 -126
46 -26 57 -28 136 -26 68 2 120 -4 255 -33 93 -20 171 -38 173 -41 7 -7 -112
-145 -177 -204 -71 -66 -133 -100 -179 -100 -17 0 -56 11 -88 25 -88 39 -152
42 -271 11 -99 -26 -109 -27 -350 -24 -238 3 -251 2 -304 -19 -120 -49 -171
-124 -216 -318 -28 -122 -55 -195 -80 -216 -41 -34 -104 35 -145 160 -34 103
-64 154 -119 204 -56 50 -106 70 -218 87 -91 13 -126 27 -209 85 -110 77 -135
86 -262 97 -64 5 -132 13 -151 17 l-35 7 58 38 c32 21 84 46 114 57 135 46
360 68 413 39 13 -7 47 -13 76 -13 76 0 137 38 251 158 101 104 166 150 277
195 61 24 171 58 194 59 6 1 67 -21 135 -48z m1305 -657 c-17 -15 -1376 -934
-1383 -934 -3 0 -5 202 -5 448 l0 449 28 14 c21 11 85 14 297 15 248 0 276 2
342 22 99 30 149 28 241 -9 137 -55 218 -25 382 140 l105 106 3 -119 c2 -87
-1 -123 -10 -132z m-2650 71 l124 -13 82 -56 c112 -75 179 -104 269 -116 163
-20 212 -66 281 -260 45 -126 98 -187 172 -197 87 -11 147 73 189 265 13 62
33 131 44 155 l19 42 1 -412 c1 -227 -1 -413 -3 -413 -3 0 -317 211 -698 468
l-693 469 -3 47 -3 48 47 -7 c27 -4 104 -13 172 -20z" />
        <path
            d="M1779 3071 c-42 -13 -70 -31 -136 -87 -73 -62 -104 -80 -175 -98 -59
-15 -79 -36 -62 -63 31 -47 185 10 303 112 98 83 149 85 311 10 169 -78 264
-81 413 -13 80 37 95 56 69 88 l-18 22 -50 -25 c-141 -71 -224 -72 -372 -4
-130 60 -216 78 -283 58z" />
        <path
            d="M372 1707 c-72 -73 -132 -139 -132 -147 0 -20 261 -280 280 -280 20
0 40 20 40 39 0 9 -42 57 -92 108 l-93 93 405 0 405 0 -93 -93 c-50 -51 -92
-99 -92 -108 0 -19 20 -39 40 -39 20 0 280 260 280 280 0 20 -261 280 -281
280 -19 0 -39 -20 -39 -39 0 -9 42 -57 92 -108 l93 -93 -405 0 -405 0 93 93
c50 51 92 99 92 108 0 19 -20 39 -40 39 -8 0 -75 -60 -148 -133z" />
    </g>
</svg>